<svg 
 xmlns="http://www.w3.org/2000/svg"
 xmlns:xlink="http://www.w3.org/1999/xlink"
 width="18px" height="18px">
<path fill-rule="evenodd"  fill="rgb(189, 189, 189)"
 d="M15.348,2.641 C11.841,-0.866 6.137,-0.866 2.629,2.641 C-0.877,6.148 -0.877,11.853 2.629,15.360 C4.383,17.113 6.686,17.989 8.989,17.989 C11.292,17.989 13.595,17.113 15.348,15.360 C18.855,11.853 18.855,6.148 15.348,2.641 ZM12.698,11.650 C12.991,11.943 12.991,12.417 12.698,12.710 C12.552,12.856 12.360,12.930 12.168,12.930 C11.976,12.930 11.785,12.856 11.638,12.710 L8.989,10.060 L6.341,12.709 C6.194,12.855 6.002,12.929 5.811,12.929 C5.619,12.929 5.427,12.855 5.281,12.709 C4.988,12.416 4.988,11.942 5.281,11.649 L7.929,9.000 L5.280,6.351 C4.987,6.058 4.987,5.583 5.280,5.291 C5.572,4.998 6.047,4.998 6.340,5.291 L8.989,7.940 L11.638,5.291 C11.931,4.998 12.405,4.998 12.698,5.291 C12.991,5.583 12.991,6.058 12.698,6.351 L10.049,9.000 L12.698,11.650 Z"/>
</svg>