<svg 
 xmlns="http://www.w3.org/2000/svg"
 xmlns:xlink="http://www.w3.org/1999/xlink"
 width="20px" height="11px">
<path fill-rule="evenodd"  fill="rgb(167, 167, 167)"
 d="M9.500,0.000 C5.870,0.000 2.578,1.929 0.149,5.062 C-0.050,5.319 -0.050,5.677 0.149,5.934 C2.578,9.071 5.870,11.000 9.500,11.000 C13.130,11.000 16.422,9.071 18.851,5.938 C19.049,5.681 19.049,5.323 18.851,5.066 C16.422,1.929 13.130,0.000 9.500,0.000 ZM9.760,9.373 C7.350,9.520 5.360,7.591 5.512,5.247 C5.636,3.314 7.249,1.748 9.239,1.627 C11.649,1.480 13.639,3.409 13.487,5.753 C13.359,7.682 11.746,9.248 9.760,9.373 ZM9.640,7.584 C8.341,7.663 7.269,6.625 7.354,5.364 C7.420,4.322 8.291,3.480 9.364,3.412 C10.662,3.333 11.734,4.371 11.649,5.632 C11.579,6.678 10.708,7.520 9.640,7.584 Z"/>
</svg>