<svg 
 xmlns="http://www.w3.org/2000/svg"
 xmlns:xlink="http://www.w3.org/1999/xlink"
 width="23px" height="25px">
<defs>
<filter id="Filter_0">
    <feFlood flood-color="rgb(72, 92, 100)" flood-opacity="1" result="floodOut" />
    <feComposite operator="atop" in="floodOut" in2="SourceGraphic" result="compOut" />
    <feBlend mode="normal" in="compOut" in2="SourceGraphic" />
</filter>

</defs>
<g filter="url(#Filter_0)">
<path fill-rule="evenodd"  fill="rgb(0, 0, 0)"
 d="M22.820,23.533 C22.584,23.762 22.201,23.743 21.966,23.490 L20.471,21.882 C20.318,22.205 20.135,22.513 19.922,22.801 C19.725,23.066 19.347,23.108 19.078,22.894 C18.809,22.679 18.750,22.290 18.947,22.025 C20.273,20.238 20.084,17.704 18.500,16.000 C16.736,14.104 13.859,13.958 12.085,15.676 C10.312,17.394 10.304,20.335 12.068,22.231 C13.392,23.655 15.432,24.139 17.144,23.434 C17.448,23.309 17.806,23.465 17.942,23.782 C18.079,24.100 17.943,24.458 17.639,24.584 C15.471,25.476 12.888,24.864 11.211,23.061 C8.978,20.659 8.988,16.935 11.234,14.760 C11.583,14.421 11.967,14.140 12.374,13.915 C12.396,13.882 12.421,13.852 12.450,13.823 C12.918,13.370 12.920,12.594 12.455,12.094 C12.311,11.939 12.141,11.827 11.947,11.759 C11.627,11.647 11.445,11.295 11.539,10.973 C11.634,10.650 11.970,10.480 12.290,10.591 C12.674,10.726 13.027,10.959 13.311,11.264 C13.854,11.847 14.079,12.616 13.991,13.337 C15.861,12.987 17.906,13.611 19.356,15.170 C20.327,16.214 20.915,17.564 21.013,18.971 C21.051,19.522 21.012,20.069 20.903,20.595 L22.823,22.660 C23.058,22.913 23.056,23.304 22.820,23.533 ZM1.660,12.789 C-0.573,10.387 -0.563,6.663 1.682,4.488 C2.165,4.020 2.713,3.663 3.297,3.412 L2.004,2.021 C1.769,1.769 1.770,1.378 2.006,1.149 C2.243,0.920 2.625,0.939 2.860,1.192 L4.580,3.041 C6.412,2.747 8.391,3.378 9.805,4.898 C12.038,7.300 12.028,11.024 9.783,13.199 C7.537,15.375 3.893,15.191 1.660,12.789 ZM8.949,5.728 C7.185,3.831 4.307,3.686 2.534,5.404 C0.761,7.122 0.753,10.063 2.516,11.959 C4.280,13.856 7.158,14.001 8.931,12.283 C10.704,10.565 10.712,7.625 8.949,5.728 Z"/>
</g>
</svg>