<svg 
 xmlns="http://www.w3.org/2000/svg"
 xmlns:xlink="http://www.w3.org/1999/xlink"
 width="27px" height="26px">
<defs>
<filter id="Filter_0">
    <feFlood flood-color="rgb(140, 152, 157)" flood-opacity="1" result="floodOut" />
    <feComposite operator="atop" in="floodOut" in2="SourceGraphic" result="compOut" />
    <feBlend mode="normal" in="compOut" in2="SourceGraphic" />
</filter>

</defs>
<g filter="url(#Filter_0)">
<path fill-rule="evenodd"  fill="rgb(0, 0, 0)"
 d="M22.196,3.804 C17.124,-1.268 8.875,-1.268 3.802,3.804 C-1.268,8.875 -1.268,17.126 3.802,22.198 C6.339,24.733 9.669,26.000 13.000,26.000 C16.331,26.000 19.660,24.733 22.196,22.198 C27.268,17.126 27.268,8.875 22.196,3.804 ZM18.364,16.833 C18.788,17.256 18.788,17.941 18.364,18.365 C18.153,18.577 17.875,18.683 17.598,18.683 C17.320,18.683 17.043,18.577 16.831,18.365 L13.000,14.533 L9.170,18.364 C8.957,18.575 8.680,18.682 8.403,18.682 C8.126,18.682 7.848,18.575 7.637,18.364 C7.213,17.940 7.213,17.254 7.637,16.832 L11.467,13.000 L7.636,9.169 C7.212,8.745 7.212,8.059 7.636,7.636 C8.059,7.212 8.745,7.212 9.169,7.636 L13.000,11.468 L16.831,7.636 C17.255,7.212 17.940,7.212 18.364,7.636 C18.788,8.059 18.788,8.745 18.364,9.169 L14.532,13.000 L18.364,16.833 Z"/>
</g>
</svg>