<svg 
 xmlns="http://www.w3.org/2000/svg"
 xmlns:xlink="http://www.w3.org/1999/xlink"
 width="30px" height="9px">
<path fill-rule="evenodd"  fill="rgb(156, 156, 156)"
 d="M0.184,4.070 L4.195,0.178 C4.440,-0.059 4.837,-0.059 5.081,0.178 C5.326,0.415 5.326,0.801 5.081,1.038 L2.140,3.892 L29.373,3.892 C29.719,3.892 30.000,4.164 30.000,4.500 C30.000,4.836 29.719,5.108 29.373,5.108 L2.140,5.108 L5.081,7.962 C5.326,8.200 5.326,8.584 5.081,8.822 C4.959,8.941 4.799,9.000 4.638,9.000 C4.478,9.000 4.317,8.941 4.195,8.822 L0.184,4.930 C-0.061,4.693 -0.061,4.307 0.184,4.070 Z"/>
</svg>