<svg 
 xmlns="http://www.w3.org/2000/svg"
 xmlns:xlink="http://www.w3.org/1999/xlink"
 width="18px" height="18px">
<defs>
<filter id="Filter_0">
    <feFlood flood-color="rgb(223, 19, 19)" flood-opacity="1" result="floodOut" />
    <feComposite operator="atop" in="floodOut" in2="SourceGraphic" result="compOut" />
    <feBlend mode="normal" in="compOut" in2="SourceGraphic" />
</filter>

</defs>
<g filter="url(#Filter_0)">
<path fill-rule="evenodd"  fill="rgb(0, 0, 0)"
 d="M0.703,12.375 C0.315,12.375 0.000,12.060 0.000,11.672 L0.000,10.617 C0.000,9.066 1.262,7.805 2.813,7.805 L3.727,7.805 L3.727,7.629 C3.727,6.272 4.831,5.168 6.187,5.168 L7.559,5.168 L7.559,4.711 C7.559,3.548 8.505,2.602 9.668,2.602 L11.320,2.602 L11.320,2.109 C11.320,0.946 12.267,0.000 13.430,0.000 L15.891,0.000 C17.054,0.000 18.000,0.946 18.000,2.109 L18.000,4.570 C18.000,5.733 17.054,6.680 15.891,6.680 L15.398,6.680 L15.398,8.332 C15.398,9.495 14.452,10.441 13.289,10.441 L12.797,10.441 L12.797,11.777 C12.797,13.134 11.693,14.238 10.336,14.238 L10.195,14.238 L10.195,15.188 C10.195,16.738 8.934,18.000 7.383,18.000 L2.813,18.000 C1.262,18.000 0.000,16.738 0.000,15.188 C0.000,14.799 0.315,14.484 0.703,14.484 C1.091,14.484 1.406,14.799 1.406,15.188 C1.406,15.963 2.037,16.594 2.813,16.594 L7.383,16.594 C8.158,16.594 8.789,15.963 8.789,15.188 L8.789,10.617 C8.789,9.842 8.158,9.211 7.383,9.211 L2.813,9.211 C2.037,9.211 1.406,9.842 1.406,10.617 L1.406,11.672 C1.406,12.060 1.091,12.375 0.703,12.375 ZM15.398,4.711 L15.398,5.273 L15.891,5.273 C16.278,5.273 16.594,4.958 16.594,4.570 L16.594,2.109 C16.594,1.722 16.278,1.406 15.891,1.406 L13.430,1.406 C13.042,1.406 12.727,1.722 12.727,2.109 L12.727,2.602 L13.289,2.602 C14.452,2.602 15.398,3.548 15.398,4.711 ZM12.797,7.629 L12.797,9.035 L13.289,9.035 C13.677,9.035 13.992,8.720 13.992,8.332 L13.992,4.711 C13.992,4.323 13.677,4.008 13.289,4.008 L9.668,4.008 C9.280,4.008 8.965,4.323 8.965,4.711 L8.965,5.168 L10.336,5.168 C11.693,5.168 12.797,6.272 12.797,7.629 ZM5.133,7.805 L7.383,7.805 C8.934,7.805 10.195,9.066 10.195,10.617 L10.195,12.832 L10.336,12.832 C10.918,12.832 11.391,12.359 11.391,11.777 L11.391,7.629 C11.391,7.047 10.918,6.574 10.336,6.574 L6.187,6.574 C5.606,6.574 5.133,7.047 5.133,7.629 L5.133,7.805 Z"/>
</g>
</svg>