<svg 
 xmlns="http://www.w3.org/2000/svg"
 xmlns:xlink="http://www.w3.org/1999/xlink"
 width="19px" height="16px">
<path fill-rule="evenodd"  fill="rgb(0, 0, 0)"
 d="M17.025,16.000 L1.975,16.000 C0.881,16.000 0.000,15.163 0.000,14.129 L0.000,3.255 C0.000,2.226 0.886,1.361 1.975,1.361 L3.118,1.361 L3.118,0.468 C3.118,0.210 3.341,-0.000 3.613,-0.000 C3.885,-0.000 4.108,0.210 4.108,0.468 L4.108,1.361 L9.007,1.361 L9.007,0.468 C9.007,0.210 9.230,-0.000 9.502,-0.000 C9.775,-0.000 9.997,0.210 9.997,0.468 L9.997,1.361 L14.847,1.361 L14.847,0.468 C14.847,0.210 15.070,-0.000 15.342,-0.000 C15.615,-0.000 15.837,0.210 15.837,0.468 L15.837,1.361 L17.030,1.361 C18.119,1.361 19.005,2.226 19.000,3.255 L19.000,14.134 C19.000,15.163 18.119,16.000 17.025,16.000 ZM18.015,3.255 C18.015,2.741 17.579,2.296 17.030,2.296 L15.837,2.296 L15.837,2.975 C15.837,3.232 15.615,3.442 15.342,3.442 C15.070,3.442 14.847,3.232 14.847,2.975 L14.847,2.296 L9.997,2.296 L9.997,2.975 C9.997,3.232 9.775,3.442 9.502,3.442 C9.230,3.442 9.007,3.232 9.007,2.975 L9.007,2.296 L4.108,2.296 L4.108,2.975 C4.108,3.232 3.885,3.442 3.613,3.442 C3.341,3.442 3.118,3.232 3.118,2.975 L3.118,2.296 L1.975,2.296 C1.430,2.296 0.990,2.736 0.990,3.255 L0.990,14.129 L0.990,14.134 C0.990,14.648 1.430,15.065 1.975,15.065 L17.030,15.065 L17.035,15.065 C17.579,15.060 18.015,14.644 18.015,14.129 L18.015,3.255 ZM15.120,9.499 L14.253,9.499 C13.981,9.499 13.759,9.289 13.759,9.031 C13.759,8.774 13.981,8.564 14.253,8.564 L15.120,8.564 C15.392,8.564 15.615,8.774 15.615,9.031 C15.615,9.289 15.392,9.499 15.120,9.499 ZM15.120,6.272 L14.253,6.272 C13.981,6.272 13.759,6.061 13.759,5.804 C13.759,5.547 13.981,5.336 14.253,5.336 L15.120,5.336 C15.392,5.336 15.615,5.547 15.615,5.804 C15.615,6.061 15.392,6.272 15.120,6.272 ZM11.645,12.679 L10.779,12.679 C10.507,12.679 10.284,12.469 10.284,12.212 C10.284,11.954 10.507,11.744 10.779,11.744 L11.645,11.744 C11.922,11.744 12.140,11.954 12.140,12.212 C12.140,12.469 11.917,12.679 11.645,12.679 ZM11.645,9.499 L10.779,9.499 C10.507,9.499 10.284,9.289 10.284,9.031 C10.284,8.774 10.507,8.564 10.779,8.564 L11.645,8.564 C11.922,8.564 12.140,8.774 12.140,9.031 C12.140,9.289 11.917,9.499 11.645,9.499 ZM11.645,6.272 L10.779,6.272 C10.507,6.272 10.284,6.061 10.284,5.804 C10.284,5.547 10.507,5.336 10.779,5.336 L11.645,5.336 C11.922,5.336 12.140,5.547 12.140,5.804 C12.140,6.061 11.917,6.272 11.645,6.272 ZM8.201,12.679 L7.335,12.679 C7.062,12.679 6.840,12.469 6.840,12.212 C6.840,11.954 7.062,11.744 7.335,11.744 L8.201,11.744 C8.473,11.744 8.696,11.954 8.696,12.212 C8.696,12.469 8.473,12.679 8.201,12.679 ZM8.201,9.499 L7.335,9.499 C7.062,9.499 6.840,9.289 6.840,9.031 C6.840,8.774 7.062,8.564 7.335,8.564 L8.201,8.564 C8.473,8.564 8.696,8.774 8.696,9.031 C8.696,9.289 8.473,9.499 8.201,9.499 ZM8.201,6.272 L7.335,6.272 C7.062,6.272 6.840,6.061 6.840,5.804 C6.840,5.547 7.062,5.336 7.335,5.336 L8.201,5.336 C8.473,5.336 8.696,5.547 8.696,5.804 C8.696,6.061 8.473,6.272 8.201,6.272 ZM4.726,12.679 L3.860,12.679 C3.588,12.679 3.365,12.469 3.365,12.212 C3.365,11.954 3.588,11.744 3.860,11.744 L4.731,11.744 C5.004,11.744 5.221,11.954 5.221,12.212 C5.221,12.469 4.999,12.679 4.726,12.679 ZM4.726,9.499 L3.860,9.499 C3.588,9.499 3.365,9.289 3.365,9.031 C3.365,8.774 3.588,8.564 3.860,8.564 L4.731,8.564 C5.004,8.564 5.221,8.774 5.221,9.031 C5.221,9.289 4.999,9.499 4.726,9.499 Z"/>
</svg>