<svg 
 xmlns="http://www.w3.org/2000/svg"
 xmlns:xlink="http://www.w3.org/1999/xlink"
 width="30px" height="9px">
<path fill-rule="evenodd"  fill="rgb(156, 156, 156)"
 d="M29.816,4.070 L25.805,0.178 C25.560,-0.059 25.163,-0.059 24.919,0.178 C24.674,0.415 24.674,0.801 24.919,1.038 L27.860,3.892 L0.627,3.892 C0.281,3.892 0.000,4.164 0.000,4.500 C0.000,4.836 0.281,5.108 0.627,5.108 L27.860,5.108 L24.919,7.962 C24.674,8.200 24.674,8.584 24.919,8.822 C25.041,8.941 25.201,9.000 25.362,9.000 C25.522,9.000 25.683,8.941 25.805,8.822 L29.816,4.930 C30.061,4.693 30.061,4.307 29.816,4.070 Z"/>
</svg>