<svg 
 xmlns="http://www.w3.org/2000/svg"
 xmlns:xlink="http://www.w3.org/1999/xlink"
 width="18px" height="18px">
<defs>
<filter id="Filter_0">
    <feFlood flood-color="rgb(75, 95, 103)" flood-opacity="1" result="floodOut" />
    <feComposite operator="atop" in="floodOut" in2="SourceGraphic" result="compOut" />
    <feBlend mode="normal" in="compOut" in2="SourceGraphic" />
</filter>

</defs>
<g filter="url(#Filter_0)">
<path fill-rule="evenodd"  fill="rgb(223, 19, 19)"
 d="M7.383,0.000 C11.454,0.000 14.766,3.312 14.766,7.383 C14.766,9.174 14.124,10.818 13.060,12.098 L17.792,16.798 C18.068,17.072 18.069,17.517 17.796,17.792 C17.658,17.931 17.477,18.000 17.297,18.000 C17.118,18.000 16.938,17.932 16.801,17.796 L12.062,13.089 C10.788,14.136 9.157,14.766 7.383,14.766 C6.116,14.766 4.866,14.439 3.769,13.822 C3.430,13.632 3.310,13.203 3.500,12.864 C3.691,12.526 4.119,12.406 4.458,12.596 C5.346,13.095 6.357,13.359 7.383,13.359 C10.678,13.359 13.359,10.678 13.359,7.383 C13.359,4.087 10.678,1.406 7.383,1.406 C4.087,1.406 1.406,4.087 1.406,7.383 C1.406,8.421 1.676,9.443 2.187,10.339 C2.380,10.677 2.262,11.106 1.925,11.298 C1.588,11.491 1.158,11.373 0.966,11.036 C0.334,9.928 0.000,8.665 0.000,7.383 C0.000,3.312 3.312,0.000 7.383,0.000 Z"/>
</g>
</svg>