<svg 
 xmlns="http://www.w3.org/2000/svg"
 xmlns:xlink="http://www.w3.org/1999/xlink"
 width="20px" height="20px">
<defs>
<filter id="Filter_0">
    <feFlood flood-color="rgb(184, 188, 190)" flood-opacity="1" result="floodOut" />
    <feComposite operator="atop" in="floodOut" in2="SourceGraphic" result="compOut" />
    <feBlend mode="normal" in="compOut" in2="SourceGraphic" />
</filter>

</defs>
<g filter="url(#Filter_0)">
<path fill-rule="evenodd"  fill="rgb(0, 0, 0)"
 d="M15.625,20.000 L4.375,20.000 C1.959,20.000 -0.000,18.041 -0.000,15.625 L-0.000,4.375 C-0.000,1.959 1.959,0.000 4.375,0.000 L15.625,0.000 C18.041,0.000 20.000,1.959 20.000,4.375 L20.000,15.625 C20.000,18.041 18.041,20.000 15.625,20.000 ZM18.750,4.375 C18.750,2.649 17.351,1.250 15.625,1.250 L4.375,1.250 C2.649,1.250 1.250,2.649 1.250,4.375 L1.250,15.625 C1.250,17.351 2.649,18.750 4.375,18.750 L15.625,18.750 C17.351,18.750 18.750,17.351 18.750,15.625 L18.750,4.375 ZM15.625,10.513 L15.625,16.250 L14.375,16.250 L14.375,10.506 C13.860,10.316 13.454,9.910 13.264,9.395 C12.906,8.423 13.403,7.346 14.375,6.988 L14.375,3.750 L15.625,3.750 L15.625,6.988 L15.625,6.994 C16.140,7.184 16.546,7.590 16.736,8.105 C17.094,9.077 16.597,10.154 15.625,10.513 ZM10.625,14.263 L10.625,16.250 L9.375,16.250 L9.375,14.256 C8.860,14.066 8.454,13.660 8.264,13.145 C7.906,12.173 8.403,11.096 9.375,10.737 L9.375,3.750 L10.625,3.750 L10.625,10.737 L10.625,10.744 C11.140,10.934 11.546,11.340 11.736,11.855 C12.094,12.827 11.597,13.905 10.625,14.263 ZM5.625,9.263 L5.625,16.250 L4.375,16.250 L4.375,9.256 C3.860,9.066 3.454,8.660 3.264,8.145 C2.906,7.173 3.403,6.096 4.375,5.738 L4.375,3.750 L5.625,3.750 L5.625,5.738 C6.147,5.927 6.558,6.338 6.748,6.860 C7.101,7.834 6.598,8.909 5.625,9.263 Z"/>
</g>
</svg>