<svg 
 xmlns="http://www.w3.org/2000/svg"
 xmlns:xlink="http://www.w3.org/1999/xlink"
 width="29px" height="26px">
<defs>
<filter id="Filter_0">
    <feFlood flood-color="rgb(227, 18, 18)" flood-opacity="1" result="floodOut" />
    <feComposite operator="atop" in="floodOut" in2="SourceGraphic" result="compOut" />
    <feBlend mode="normal" in="compOut" in2="SourceGraphic" />
</filter>

</defs>
<g filter="url(#Filter_0)">
<path fill-rule="evenodd"  fill="rgb(0, 0, 0)"
 d="M26.583,21.273 L18.123,21.273 C18.149,22.217 18.335,23.728 19.024,24.436 C19.277,24.697 19.567,24.818 19.938,24.818 C20.271,24.818 20.542,25.082 20.542,25.409 C20.542,25.736 20.271,26.000 19.938,26.000 L9.063,26.000 C8.729,26.000 8.458,25.736 8.458,25.409 C8.458,25.082 8.729,24.818 9.063,24.818 C9.433,24.818 9.723,24.696 9.977,24.436 C10.668,23.724 10.852,22.216 10.878,21.273 L2.417,21.273 C1.084,21.273 -0.000,20.213 -0.000,18.909 L-0.000,2.364 C-0.000,1.060 1.084,-0.000 2.417,-0.000 L26.583,-0.000 C27.916,-0.000 29.000,1.060 29.000,2.364 L29.000,18.909 C29.000,20.213 27.916,21.273 26.583,21.273 ZM14.500,20.094 C15.168,20.094 15.712,19.562 15.712,18.909 C15.712,18.256 15.168,17.724 14.500,17.724 C13.832,17.724 13.288,18.256 13.288,18.909 C13.288,19.562 13.832,20.094 14.500,20.094 ZM26.583,2.364 L2.417,2.364 L2.417,16.545 L26.584,16.545 L26.583,2.364 ZM6.042,5.909 L15.226,5.909 C15.407,5.909 15.580,5.989 15.694,6.126 C15.809,6.263 15.855,6.444 15.818,6.618 C15.746,6.968 15.708,7.326 15.708,7.682 C15.708,7.907 15.723,8.130 15.753,8.352 C15.776,8.534 15.713,8.716 15.580,8.845 L12.614,11.747 C12.395,11.961 12.234,12.242 12.151,12.558 C12.082,12.818 11.841,13.000 11.566,13.000 L6.042,13.000 C4.709,13.000 3.625,11.940 3.625,10.636 L3.625,8.273 C3.625,6.969 4.709,5.909 6.042,5.909 ZM17.140,8.992 C16.992,8.566 16.917,8.127 16.917,7.682 C16.917,5.401 18.814,3.545 21.146,3.545 C23.478,3.545 25.375,5.401 25.375,7.682 C25.375,9.962 23.478,11.818 21.146,11.818 C20.691,11.818 20.242,11.745 19.807,11.600 L16.135,15.191 C16.022,15.301 15.869,15.364 15.708,15.364 L13.896,15.364 C13.562,15.364 13.292,15.099 13.292,14.773 L13.292,13.000 C13.292,12.843 13.355,12.693 13.469,12.582 L17.140,8.992 ZM21.750,8.273 C22.416,8.273 22.958,7.742 22.958,7.091 C22.958,6.439 22.416,5.909 21.750,5.909 C21.084,5.909 20.542,6.439 20.542,7.091 C20.542,7.742 21.084,8.273 21.750,8.273 Z"/>
</g>
</svg>